<svg version="1" xmlns="http://www.w3.org/2000/svg" width="682.667" height="682.667" viewBox="0 0 512.000000 512.000000"><path d="M221 87c-18.7 2.6-32.7 6.7-46.5 13.8-14.1 7.2-24 14.6-37.1 27.6-26.1 26-39.4 57.9-39 93.8.1 5.4-.1 9.8-.4 9.9-.3 0-3.4.3-7 .5-25.7 1.5-50.8 14.3-68.2 34.8C11.1 281.2 4.4 295.3 1.1 313c-.3 1.9-.6 9.8-.5 17.5.1 15.7 2.2 25.9 7.6 37.5 11.3 24.2 34.1 44.3 59.3 52.4 14.5 4.6 10.3 4.5 177.5 4.3 86.6-.1 158.5-.5 159.7-.9 1.1-.4 4.3-1 7-1.4 2.6-.3 8.9-2 13.8-3.6 37.7-12.1 69.4-43.7 80.9-80.7 4.1-13 5.4-23.6 5-40.5-.2-13.3-.8-17.8-3.9-31.4-1.1-4.6-5.5-15.5-9.2-22.5-6.9-13-22-31.2-32.8-39.2-2.2-1.6-4.2-3.3-4.5-3.6-1.3-1.6-15.8-10.4-21.5-13-17.2-7.8-33.1-11.1-54.3-11.3l-14.3-.1-3.2-7.1c-10.1-22.1-25.3-40.7-45.1-55.3C306 101.9 294.2 96 276.5 91c-6.5-1.8-8.9-2.3-17-3.6-5.4-.9-32.9-1.2-38.5-.4zm-8.5 131c.4 1.7 2 7.1 3.6 12.2 1.5 5 2.6 9.5 2.3 9.9-.3.5-.1.9.4.9.6 0 1.3 1.2 1.6 2.7.4 1.6 2 7.1 3.6 12.3 4 12.8 4.4 13.9 8 26 1.7 5.8 3.5 11.4 3.9 12.5 2.8 6.9 10.1 33 9.6 34.3-.3.9-.2 1.3.2.8.4-.4 2.2 3.6 4 9.1l3.1 9.8.1-65.3.1-65.2h14.3c21.8 0 27.5 2.3 33.1 13.6 3.8 7.8 5.6 22.9 3.7 32.5-1.9 9.4-2.1 10.1-4.7 14.8-4.9 8.7-9.8 11.1-23.2 11.5-5.1.2-9.5.6-9.8.9-.3.2-.5 13.6-.4 29.6l.1 29.2-14-.2-14-.1-1.9-6.6c-1.6-5.5-2.9-10.1-3.7-13.2 0-.3-.9-2.9-1.9-5.7-.9-2.9-1.5-5.7-1.2-6.2.3-.5-.1-1.2-1-1.5-1.7-.6-34.3-1.1-34.9-.4-.2.1-2.5 7.7-5.2 16.8l-4.8 16.5-7.4.3-7.3.3.6-2.8c.7-2.7 5.7-19 11.7-38.3 1.7-5.2 3.2-10.2 3.4-11 .2-.8 1.8-6 3.5-11.5s4.2-13.3 5.4-17.3c1.2-4 2.6-6.9 3.1-6.5.4.4.5.3.1-.4-.6-1 1-7.6 3.2-13.3.8-2.2.8-2.2 1.6-6.2.5-2.1 1.1-3.6 1.5-3.4.3.2.7-.6.7-1.7.2-3.5 6.8-23.6 7.6-23.1.3.2.9 1.8 1.3 3.4zm133.5 2.1c6.4 3.6 11.6 9.8 10.6 12.4-.3.8 0 1.4.6 1.2 2.8-.6 5.1 18.3 3.6 29.8-1.3 10-7.1 22.4-10.5 22.5-.7 0-1.3.4-1.3.8 0 1.6-8.4 3.4-17 3.8-4.7.1-8.7.3-9 .3-.3.1-.5 11.6-.5 25.6.1 18-.2 25.2-.9 24.8-.8-.5-.8-.3 0 .8.5.8 1 2.7 1 4.4-.1 3-.1 3-6.6 3.3l-6.6.3V217.8l17.1.4c12.3.3 17.7.8 19.5 1.9zm42.2 42.7c3.5 1.5 8 5.9 9.6 9.6 1.2 2.8 1.1 3.1-3 7.3-4.3 4.4-5.8 5.2-5.8 3.2 0-.6-1-2.3-2.2-3.8-6-7-16.4-.8-14.2 8.5.6 2.8 6 9.4 7.6 9.4 2.5 0 19 13.2 18.5 14.9 0 .3.5 1.7 1.3 3.1 1.7 3.1 1.8 20.6.1 22.3-.6.6-1.1 1.8-1.1 2.8 0 .9-1.7 3.6-3.9 6-2.7 3.2-5.2 4.8-8.7 5.9-5.6 1.6-13.4 1.6-14.4-.1-.4-.6-1-1-1.4-1-2.4.3-3.7-.3-6.6-3.2-1.8-1.7-4.3-5.4-5.6-8.1l-2.3-4.9 5.2-4.3 5.2-4.3 1.8 4.2c2.3 5.2 5.5 7.7 10.4 8.1 4.6.4 7.8-1.5 9.2-5.6 2.1-6 1.4-9.1-3.1-13.6-2.2-2.3-4.5-4.2-5-4.2-1.5 0-9.9-6.1-13.2-9.5-5.6-5.8-6.8-9.1-6.9-18-.1-7 1.8-15.5 3.4-15.5.5 0 .9-.6.9-1.3 0-1.7 4.5-5.8 8.7-7.8 3.6-1.7 11.4-1.8 15.5-.1zm-267 2.9c3.9 3.8 5.5 9.5 5.4 19.5-.1 4.9 0 8.8.2 8.8.1 0 1.4-2.5 2.8-5.6 7.5-16.4 17.3-26.4 25.8-26.4 3.2 0 4.5.7 7.6 3.9 7.1 7.4 8.8 21.2 6.5 54.1-.3 5.8-.8 11.8-1 13.5-.6 5.8-1.5 14.1-2 20-.3 3.3-.8 7.1-1 8.5-.2 1.4-.7 5-1 8-.4 3-.8 6.6-1 8-.8 5.5-1.8 13.7-2 16.3-.2 1.5-.4 3-.7 3.2-.6.6-17.8 1.8-17.8 1.2 0-.2.9-4.9 2-10.3 2.7-12.8 5.8-30 8.5-47.4.2-1.4.7-4.8 1-7.5.4-2.8.9-6.2 1.1-7.6 1.3-8.4 1.8-15.9 1.8-28 .1-12-.1-13.9-1.8-15.8-1.5-1.7-2.2-1.8-4-.9-9.3 4.7-21.1 31.8-25 57.3-1 6.2-1.7 9.9-1.9 10.1-.5.5-14.4 1.9-15.8 1.6-1.3-.2-1.2-1.6.8-12 3.8-19.1 5.1-29.1 4.9-39.7-.2-14.9-3-18.9-10.3-14.9-3.8 2-4.9 1.4-6.2-3.2-1.1-3.8 1-12 3.5-14 6.4-5.1 14.7-5.4 19.6-.7z"/><path d="M266.8 247.8c-.5 18.8 0 24.9 2 25.4 3.6.9 15.1-1.8 17.6-4.1 3.5-3.3 4.9-11.6 3.3-20.6-1.4-8.2-5.9-11.5-16.3-12l-6.3-.4-.3 11.7zM209.9 256.2c-.1 1.6-.2 3.1-.3 3.5-.1.5-.6 2.4-1 4.3s-2.6 9.3-4.8 16.5c-2.1 7.1-4.1 14.1-4.4 15.5l-.4 2.5 12.1-.3c10.8-.3 12-.5 11.6-2-2.9-9.5-6-19.9-6.1-20.7-.1-.6-.4-1.5-.7-2-.7-1.1-2-5.9-2.5-9-.5-3.4-1.2-5.9-2.3-8.5l-1-2.5-.2 2.7zM324.4 236.8c-.6.4-1 7.3-1 18.4 0 19.6-.5 18.2 6.7 17.8 12.6-.5 16.7-4.9 17-18.5.1-2-1-7.1-2-9.6-.5-1.5-.7-3-.3-3.5.4-.4.1-.4-.5 0-.7.4-1.3.3-1.3-.1 0-2.7-15.6-6.5-18.6-4.5z"/></svg>